# xmcd
#
# Track frame offsets: 
#        150
#        14095
#        29016
#        43442
#        57492
#        70475
#        84477
#        98776
#        114543
#        128428
#        142938
#        156512
#        170187
#        186258
#        200518
#        212742
#        226457
#        240907
#        254392
#        270755
#
# Disc length: 3781 seconds
#
# Revision: 0
# Processed by: cddbd v1.4PL0 Copyright (c) Steve Scherf et al.
# Submitted via: ExactAudioCopy v0.90b4
#
DISCID=280ec314
DTITLE=John Lee Hooker - Burning Hell
DYEAR=2000
DGENRE=Blues
TTITLE0=Miss Rosie May
TTITLE1=Wandering Blues
TTITLE2=The Numbers
TTITLE3=Talkin' Boogie
TTITLE4=Devil's Jump
TTITLE5=Highway Blues
TTITLE6=Whistlin' And Moanin'
TTITLE7=Landing Blues
TTITLE8=I'm Gonna Kill That Woman
TTITLE9=Do the Boogie
TTITLE10=Crawlin' King Snake
TTITLE11=Hobo Blues
TTITLE12=Black Man Blues
TTITLE13=Boogie Chillen
TTITLE14=Burnin' Hell
TTITLE15=Morning Blues
TTITLE16=I Love to Boogie
TTITLE17=Drifting from Door to Door
TTITLE18=Low Down Midnite Boogie
TTITLE19=Nightmare Blues
EXTD=
EXTT0=
EXTT1=
EXTT2=
EXTT3=
EXTT4=
EXTT5=
EXTT6=
EXTT7=
EXTT8=
EXTT9=
EXTT10=
EXTT11=
EXTT12=
EXTT13=
EXTT14=
EXTT15=
EXTT16=
EXTT17=
EXTT18=
EXTT19=
PLAYORDER=
